<?xml version="1.0" encoding="utf-8"?>
<!-- Generator: Adobe Illustrator 23.0.1, SVG Export Plug-In . SVG Version: 6.00 Build 0)  -->
<svg version="1.1" id="Layer_1" xmlns="http://www.w3.org/2000/svg" xmlns:xlink="http://www.w3.org/1999/xlink" x="0px" y="0px"
	 viewBox="0 0 1370.95 770.79" style="enable-background:new 0 0 1370.95 770.79;" xml:space="preserve">
<style type="text/css">
	.st0{fill:#FFFFFF;}
</style>
<g>
	<path class="st0" d="M636.12,231.75c0,1.08,0,2.17,0,4.26c0.96-1.72,1.4-2.5,2.07-3.69c1.2,1.62,2.1,2.84,3.15,4.24
		c1.33-0.66,3.48-1.09,3.67-1.95c0.51-2.32,3.1-2.89,3.56-4.81c0.5-2.08,3.34-1.46,3.53-3.94c-1.16-1.43-2.48-3.05-3.81-4.68
		c0.25-0.27,0.5-0.54,0.76-0.82c0.85,0.76,1.6,1.67,2.57,2.23c1.01,0.59,2.22,0.86,3.82,0.63c-1.5-1.13-3-2.25-4.51-3.38
		c0.11-0.23,0.22-0.47,0.33-0.7c2.04,0.78,4.03,1.89,6.15,2.27c2.19,0.39,4.5,0.09,6.86,0.09c-2.62-3.6-2.62-3.6-5.25-4.99
		c0-1.26,0-2.54,0-3.88c2.51,2.25,4.9,4.41,7.41,6.66c0.91-1.17,1.81-2.33,2.71-3.49c2.02,0.87,6.03,1.1,9.05,0.54
		c-0.34-0.38-0.68-0.78-1.04-1.18c0.37-0.19,0.68-0.45,1.01-0.48c5.94-0.54,11.2,2.18,16.72,3.58
		c11.32,2.88,17.21,11.19,22.58,17.98c0.32,0.4,0.61,0.95,0.61,1.43c0.01,0.82,0.45,2.18-1.09,2c-2.13-0.25-0.05-1.1-0.17-1.55
		c-0.4-1.53-2.32-2.26-4.01-1.6c-0.66,0.26-1.21,0.79-1.98,1.31c1.32,0.64,2.07,1.01,2.95,1.45c-0.31,0.63-0.52,1.11-0.78,1.57
		c-1.06,1.84-3.43,2.14-4.5,4.28c-0.81,1.6-2.98,2.54-4.63,3.66c-0.39,0.26-1.11,0.04-1.68,0.04c1.43-1.7,2.86-3.41,4.56-5.44
		c0.21-2.04-0.93-5.03,2.43-6.4c-1.87-5.81-5.66-9.93-10.41-13.18c-2.99-2.04-4.15-2.12-7.08-1.77c1.03,2.12,2.1,4.13,2.98,6.21
		c0.41,0.97,0.93,2.26,0.61,3.1c-1.72,4.4-2.16,9.11-5.1,13.31c-3.72,5.29-8.49,7.92-14.34,9.44c-0.25,0.07-0.56,0.1-0.8,0.01
		c-6.32-2.34-13.27-3.65-16.54-10.76c-0.47-1.01-1.63-1.7-3.11-3.18c0.57,2.55,1.44,4.19,1.11,5.54c-0.42,1.7,1.55,2.8,0.6,4.41
		c-0.15,0.25,0.15,0.8,0.32,1.18c0.26,0.62,5.87,7.2,6.36,7.51c1.23,0.79,2.49,0.13,3.64-2.13c0.64,1.91,1.21,3.6,1.74,5.17
		c-0.83,1.52-1.81-1.99-2.53,0.31c-0.23,0.75-0.66,1.44-1.34,2.9c2.62-0.81,4.38-1.35,6.19-1.91c-1.26-2.2-1.26-2.2,1.33-4.71
		c1.56,0.25,2.79,0.36,3.97,0.66c1.01,0.26,1.96,0.75,2.95,1.14c0.8-1.17,1.58-2.33,2.44-3.59c0.54,1.59,3.17,0.53,3.03,2.78
		c-0.01,0.22,1.12,0.63,1.75,0.75c1.94,0.36,3.41-0.89,4.97-1.71c0.92-0.48,1.67-1.3,3.11-2.46c0.1,1.75,0.6,3.05,0.15,3.7
		c-3.75,5.36-8.18,10.16-13.39,14.08c-2.07,1.56-3.87,3.62-6.84,4.08c-5.19,0.81-9.76,1.12-14.42-2.67
		c-4.19-3.4-7.4-7.25-10.39-11.61c-1.21-1.77-1.4-3.3-1.45-5.19c-1.17-0.38-2.4-0.64-3.49-1.17c-0.93-0.46-1.7-1.23-2.76-2.03
		c0.07,3.84-1.96,6.58-2.87,9.67c2.28,2.92,2.28,2.92,2.03,8.32c-0.91-1.2-1.72-1.87-1.95-2.69c-0.28-1.01-0.07-2.16-0.07-4.16
		c-1.61,1.15-2.61,1.76-3.49,2.51c-1,0.87-1.86,1.9-2.84,2.79c-1.6,1.46-2.59,1.47-4.28,0.16c-0.72-0.56-1.45-1.11-2.52-1.92
		c3.35-1.42,4.73-3.9,6.33-6.07c-0.44-2.31-3.61-3.92-1.34-6.63c-0.7-1.61-2.09-3.29-1.93-4.8c0.19-1.7,0.52-3.63,1.1-5.19
		c1.57-4.21,0.63-8.46,1.08-12.69c1.89-1.02,2.03-1.22,2.68-3.83C634.93,231.05,635.53,231.4,636.12,231.75z M681.76,269.62
		c5.32-2.4,6.36-3.3,8.69-7.42c-3.4,1.36-6.12,3.24-8.65,5.38C681.54,267.79,681.76,268.55,681.76,269.62z M674.12,224.91
		c1.44,1.07,2.43,1.81,4.26,3.16c-0.2-2.56-0.31-4.02-0.48-6.23C676.35,223.1,675.46,223.82,674.12,224.91z M664.74,271.8
		c0.69,2.05,2.17,2.39,3.82,2.02c0.35-0.08,0.48-1.11,0.82-2.02C667.57,271.8,666.19,271.8,664.74,271.8z"/>
	<g>
		<path class="st0" d="M681.41,456.96c-6.78,48.87-3.26,81.84-24.05,78.29c0-1.49,0-2.99,0-4.48c0-1.63,0.42-19.93-0.24-21.21
			c-1.67-3.24,0.26-6.83-1.42-10.02c-0.32-0.6,0.58-1.85,0.97-2.98c-0.74-0.53-1.4-0.99-1.76-1.25c0-1.61,0-2.79,0-3.81
			c0.66-0.71,1.19-1.28,1.74-1.86c-0.41-1.04-0.73-1.86-1.07-2.75c0.52-1.09,2.29-1.63,1.65-3.17c-1.28-1.04-2.48-2.01-3.73-3.01
			c-0.18,0.17-0.47,0.42-0.48,0.44c-2.65-1.21-5.44-0.05-8.21-0.84c1.32-0.67,2.4-1.21,3.01-1.51c0.7-1.03,1.12-1.66,1.54-2.28
			c1.44,0,2.8-0.12,4.14,0.03c1.39,0.16,2.75,0.57,4.63,0.98c0.29-0.52,0.67-1.22,1.06-1.91c0.38,0.38,0.57,0.57,0.76,0.76
			c2.44-0.68,0.51-3.37,1.96-4.4c-0.47-0.91-0.94-1.8-1.45-2.76c0.27-0.52,0.7-1.05,0.81-1.64c0.15-0.75,0.04-1.55,0.04-1.89
			c1.85-0.96,3.29-1.71,4.78-2.47c0.07-0.61,0.14-1.26,0.2-1.86c0.52-0.52,1-1,1.53-1.53c0-1.43,0-2.91,0-4.4
			c0-1.36-0.18-2.75,0.05-4.06c0.25-1.47,1.07-2.86,1.28-4.33c0.22-1.51,0.04-3.09-0.05-4.64c-0.04-0.62-0.43-1.22-0.45-1.84
			c-0.13-3.84-1.17-7.58-0.92-11.48c0.1-1.6-0.71-3.23-0.86-4.94c-0.13-1.52-1.32-2.95-2.32-4.97c0-0.81,0-2.3,0-3.8
			s0.09-2.99-0.03-4.48c-0.11-1.38-0.45-2.74-0.69-4.11c1.72-1.32,0.09-2.57-0.1-3.85c2.1-1.67-0.47-3.34,0.06-5.2
			c0.72-0.48,1.55-1.03,2.34-1.55c0-1.65,0-3.26,0-4.9c-0.5-0.19-0.97-0.37-1.51-0.57c0-1.16,0-2.34,0-3.47
			c0.69-0.46,2.18-0.21,1.2-2.02c-3.56,0-7.3,0-10.99,0c-0.03-0.55-0.04-0.82-0.07-1.37c1.6-0.46,3.27-0.94,4.81-1.38
			c0.14-0.48,0.24-0.84,0.38-1.32c2.06,0,4.06,0,6.04,0c0-2.51,0-4.88,0-7.24c-2.09,0-3.99,0-5.97,0c-0.43-0.45-0.94-0.91-1.35-1.44
			c-0.42-0.54-1.27-0.81-1.31-1.8c2.16,0.34,4.16,0.65,5.52,0.86c1.55-1.05,2.47-1.67,3.27-2.22c0.05-0.7,0.08-1.22,0.07-1.1
			c1.94-1.76,3.47-3.15,4.94-4.48c0-1.04,0-1.83,0-2.68c0.81-0.12,1.56-0.24,2.55-0.39c-0.48-1.1-0.88-2-1.34-3.05
			c-1.93,0-3.93,0-5.51,0c-1.53-1.21-2.74-2.15-3.96-3.11c0.03-0.51,0.06-1.03,0.08-1.48c0.92-0.41,1.72-0.77,2.43-1.09
			c0.72,0.32,1.37,0.61,1.7,0.76c1.12-1.34,2.01-2.39,2.83-3.37c1.1,0,1.87,0,2.1,0c0.9-1.02,1.36-1.81,2.05-2.26
			c1.8-1.18,3.59-2.8,5.58-3.14c2.47-0.42,3.66-2.8,6.29-2.77c-0.47-0.47-0.66-0.66-0.85-0.85c1.01-1.7,2.02-3.4,3.16-5.33
			c-0.5-1.91,0.38-3.89,0.64-5.94c0.32-2.53,0.08-5.13,0.08-7.59c-0.94-1.09-1.8-2.09-2.72-3.17c-1.06,3.31-1.79,6.41-3.04,9.27
			c-1.28,2.92-1.67,6.21-3.8,8.49c0.33,0.61,0.51,0.94,0.65,1.2c-1.04,1.47-1.94,2.89-3.01,4.18c-1.2,1.44-2.72,2.42-4.83,2.37
			c-1.93-2.04-3.34-4.82-7.49-5.66c-1.41,0.11-3.93-0.41-6.34,0.74c-1.01,0.48-2.19,0.63-3.31,0.84c-2.15,0.4-4.06-0.56-6.03-1.15
			c0-1.4,0.08-2.76-0.04-4.11c-0.05-0.58-0.82-1.5-0.69-1.62c0.71-0.63,0.49-1.48,0.78-2.16c0.94-2.29,0.73-4.66,0.76-7.01
			c0.01-0.41-0.12-0.86,0.02-1.21c1.37-3.56,0.77-7.44,1.69-10.34c1.17-2.02,1.99-3.45,2.87-4.96c0.25,0.04,0.62,0.1,1.3,0.21
			c-1.02,1.77-0.67,3.95-2.48,4.96c0,1.59,0,3.05,0,4.29c1.39,0.82,2.56,1.58,3.79,2.21c3.44,1.75,5.45,4.64,6.63,8.18
			c0.11,0.33-0.06,0.76-0.09,1.1c-0.56,0.2-1.04,0.36-1.8,0.63c0.39,1.01,0.75,1.94,1.13,2.93c1.46-0.09,2.64-0.14,3.81-0.27
			c0.26-0.03,0.5-0.36,0.52-0.37c0.75,0.32,1.22,0.52,1.49,0.63c1.43-1.36,2.7-2.56,3.96-3.76c0-1.14,0-2.22,0-3
			c1.87-2.2,3.59-4.21,5.48-6.43c0.63,0.18,1.46,0.42,2.43,0.7c0.18-0.18,0.56-0.56,0.95-0.95c0.62-2.61-1.74-5.25,0.39-7.89
			c-0.68-0.68-1.5-1.14-1.75-1.81c-1.18-3.16-4.3-3.82-6.68-5.43c-1.67,0.57-2.06-1.5-2.61-1.57c-1.74,0.35-2.72,0.69-3.71,0.73
			c-3.7,0.13-7.44-0.36-11.07,0.82c-0.12,0.04-0.35-0.28-0.48-0.39c0.65-0.68,1.3-1.37,1.78-1.88c2.93-0.42,5.65-0.8,8.54-1.21
			c0.04-0.16,0.14-0.53,0.27-0.99c1.71-1.65,4.05-1.1,5.57-1.18c1.71-1.09,2.89-1.85,4.34-2.77c0.95,1.17,1.82,2.25,2.6,3.2
			c2.28,0.55,4.56,1.11,6.88,1.67c0.14-0.12,0.33-0.29,0.63-0.55c0.78,1.05,1.56,2.08,2.44,3.25c0.4,0.05,1.04,0.12,1.66,0.2
			c0.19,0.53,0.36,1,0.49,1.38c1.56,0,3.02,0,4.26,0l3.63,35.55c0.32,0.32,0.7,0.55,0.68,0.7c-0.14,0.85-3.25,6.57-3.76,7.3
			c-0.65,0.93-1.26,1.91-1.79,2.92c-1.28,2.45-2.7,4.83-3.7,7.42c-0.14,0.35-0.32,0.68-0.42,0.9c0.67,0.66,1.24,1.23,1.82,1.81
			c-1.14,0.91-1.23,1.77-0.67,2.93c0.38,0.78,0.39,1.75,0.5,2.64c0.02,0.2-0.24,0.43-0.37,0.66c-1.31-0.18-2.36,0.17-2.91,1.62
			c1.28,1.53,1.13,3.52,0.75,5.23c-0.37,1.65-1.62,3.1-2.45,4.59c0.37,0.56,0.65,0.99,0.96,1.46c-0.73,1.83-1.47,3.69-2.26,5.65
			c0.06,0.07,0.31,0.35,0.54,0.61c-0.28,0.33-0.54,0.63-0.84,0.98c1.42,1.89,0.81,4.07,0.88,6.15c0.07,2.06,0.24,4.24-2.4,5.04
			c0.52,0.56,1.05,1.13,1.57,1.7c-1.21,0.78-0.66,1.96-0.79,2.98c-0.08,0.59,0.31,1.45-0.85,1.5c0.02-0.01,0.07-0.06,0.12-0.12
			c-0.19-0.22-0.38-0.44-0.57-0.67c-0.09,0.09-0.17,0.17-0.26,0.26c0.22,0.19,0.44,0.38,0.7,0.53c0.22,0.67,0.4,1.38,0.56,2
			c-0.17,0.71-0.32,1.45-0.53,2.17c-0.24,0.85-0.53,1.68-0.85,2.67c0.86,0.87,1.79,1.79,2.76,2.77c-0.7,1.46-1.68,2.66-1.81,3.95
			c-0.17,1.65-1.02,2.86-1.72,4.2c-0.66,1.28-1.24,2.57-0.58,4.02L681.41,456.96z"/>
		<path class="st0" d="M596.83,535.51c-12.01-54.11,31.85-159.27,31.85-159.27l0.76-30.27c0.51-0.77,1.05-1.57,1.63-2.44
			c0.6,0.4,1,0.67,1.4,0.94c0.29-0.83,0.57-1.67,0.87-2.49c1.24-3.42,2.29-6.94,3.84-10.21c0.65-1.38,0-2.74,0.58-3.83
			c0.65-1.25,1.44-2.33,1.6-3.84c0.27-2.45,4.62-11.04,6.04-12.97c1.46-2,3.55-3.3,5.2-5.08c0.34-0.37,1-0.43,1.52-0.63
			c-1.25,1.73-1.7,3.98-3.83,4.66c-2.02,3.77-5.27,6.98-4.98,11.55c-0.67,0.14-1.05,0.21-1.23,0.25c-0.36,1.53-0.68,2.9-1.03,4.36
			c0.21,0.28,0.51,0.69,0.79,1.07c-1.61,2.27-0.53,4.76-0.9,6.86c-0.56,1.04-1.03,1.9-1.5,2.76c1.02,0.48,2.05,0.96,3.07,1.44
			c0.43,2.54,2.4,3.97,4.12,5.77c-0.61,3.98,3.92,3.04,5.36,5.41c1.91,0,3.91,0,5.8,0c0.46,0.52,0.81,0.91,1.17,1.31
			c-0.37,0.75-0.71,1.42-1.03,2.08c0.96,0.62,1.79,1.16,2.69,1.74c-1.19,0.82-1.66,2.48-3.89,1.99c-0.24-0.24-0.83-0.75-1.32-1.35
			c-0.46-0.56-0.77-1.24-1.24-1.79c-0.43-0.51-0.98-0.92-1.77-1.63c-0.83,0.03-2.01,0.14-3.3,0.67c-0.98,0.4-2.44-0.37-3.72-0.63
			c-1.77,1.45-3.59,2.93-5.51,4.5c1.42,2.9,2.75,5.6,4.13,8.43c0.65,0.04,1.56,0.09,2.41,0.13c0.39,0.95,0.73,1.76,1.04,2.58
			c0.03,0.08-0.09,0.23-0.26,0.63c-0.88,0-1.89,0-2.78,0c-0.22,1.42-0.4,2.54-0.64,4.05c0.08,0.17,0.41,0.83,0.75,1.52
			c0.62,0.07,1.26,0.15,2.04,0.24c0.05,0.66,0.09,1.3,0.12,1.67c1.23,0.99,2.32,1.86,3.65,2.94c-0.6,1.04-1.09,1.89-1.76,3.04
			c-2.91-1.63-5.7-1.98-8.38,0.05c0.51,0.21,0.97,0.4,1.43,0.58c-0.31,0.65-0.61,1.3-0.94,2c-1.82,0.97-4.3,0.94-5.44,3.19
			c-0.04,1.17,0.11,2.26-0.93,3.32c-1.03,1.05-1.93,2.5-2.23,3.91c-0.27,1.3-0.81,2.39-1.28,3.57c-0.61,1.51-1.13,3.06-1.89,5.13
			c-1.95,1.39-3.11,3.76-2.58,6.82c-0.59,0.21-1.06,0.39-1.54,0.56c-0.37,2.91-2.51,4.72-4.27,6.85c0,0.75,0,1.55,0,2.06
			c-1.2,1.68-2.25,3.15-3.37,4.72c0.33,0.83,0.65,1.65,1.05,2.66c-1.34,1.89-2.74,3.88-4.15,5.87c0,2.71,0,5.42,0,8.5
			c-0.43,0.29-1.07,0.73-1.46,1c0.56,1.6,1.01,2.9,1.56,4.48c-0.85,0.68-1.79,1.44-2.57,2.07c0,1.13,0,1.94,0,3.14
			c-0.45,0.3-1.13,0.75-1.51,1.01c0,2,0,3.6,0,5.19c0.87,0.23,1.66,0.44,2.94,0.77c-1.32,1.42-2.28,2.45-2.85,3.06
			c0.33,3.17,0.61,5.76,0.9,8.5c0.35,0.35,0.83,0.83,1.31,1.31c0.06,0.64,0.11,1.29,0.17,2.02c2.27-0.15,2.64,3.22,5.13,2.53
			c1.12,2.04,4.06,1.2,4.85,3.15c1.2,0.11,2.07,0.19,2.93,0.28c0,0.19,0,0.37,0,0.56c-3.19,0-6.38,0-9.66,0c0,1.74,0,3.19,0,4.66
			c0.46,0.46,0.94,0.94,1.57,1.57c-0.48,1.87,0.96,4.15-1.2,6.04c-1.06,0-2.25,0-2.94,0c-1.07,0.89-1.8,1.49-2.46,2.04
			c0,1.5,0,2.85,0,4.15c-0.53,0.53-1.01,1.01-1.63,1.63c0,4.84,2.05,26.47,2.05,31.4c-0.62,0.22-1.09,0.39-1.58,0.56
			c0.28,1.04,0.55,2,0.81,2.97c-6.79,0-13.58,0-20.36,0"/>
		<ellipse class="st0" cx="689.41" cy="363.69" rx="0.19" ry="0.58"/>
		<ellipse class="st0" cx="640.53" cy="367.76" rx="0.58" ry="0.19"/>
		<path class="st0" d="M627.91,491.94c0.55-1.07,0.89-1.74,1.39-2.7c1.11,0.92,2.15,1.79,3.19,2.66c0.24-0.24,0.43-0.43,0.81-0.81
			c0.44,0.63,0.88,1.27,1.22,1.76c1.7-0.03,3.09-2.31,4.34-0.01c1.19-0.37,2.25-0.7,3.24-1.01c0.48,0.91,0.82,1.57,1.29,2.47
			c-1.28,0.04-2.58,0.16-3.87,0.11c-1.43-0.05-2.85-0.25-4.28-0.39c-1.29-0.13-2.63-0.11-3.86-0.45
			C630.2,493.23,629.12,492.52,627.91,491.94z"/>
		<path class="st0" d="M616.41,458.9c0.8-0.46,1.59-0.93,2.39-1.39c1.99-0.39,4.51-1.15,6.6,0.74
			C622.59,459.74,619.6,459.37,616.41,458.9z"/>
		<path class="st0" d="M644.28,386.2c0-1.04,0-1.67,0-2.43c2.96,0,5.84,0,9.04,0c-1.45,1.09-2.7,1.53-4.25,1.56
			C647.58,385.36,646.09,385.85,644.28,386.2z"/>
		<path class="st0" d="M638.28,459.48c-3.04-0.37-6.09-0.73-9.39-1.13c-0.03-0.2-0.11-0.66-0.21-1.24
			C632.28,456.53,635.35,457.65,638.28,459.48z"/>
		<path class="st0" d="M640.13,469.44c2.8-1,4.47,1.05,6.88,1.91c-0.48,0.47-0.77,0.99-1.12,1.04c-0.74,0.1-5.03-1.72-5.75-2.31
			C640.07,470.03,640.13,469.82,640.13,469.44z"/>
		<path class="st0" d="M649.56,369.87c-0.44-0.44-0.81-0.81-1.19-1.19c0.12-0.17,0.28-0.5,0.36-0.48c0.93,0.2,1.85,0.46,2.74,1.35
			C650.82,369.66,650.16,369.77,649.56,369.87z"/>
		<path class="st0" d="M649.67,372.85c0.28-0.67,0.45-1.09,0.75-1.82c0.82,0.66,1.39,1.12,2.26,1.82
			C651.52,372.85,650.71,372.85,649.67,372.85z"/>
		<path class="st0" d="M657.36,464.43c0.45,0,0.9,0,1.35,0c0.02,0.13,0.04,0.26,0.06,0.39c-0.44,0.11-0.89,0.21-1.33,0.32
			C657.42,464.9,657.39,464.66,657.36,464.43z"/>
		<path class="st0" d="M629.39,481.25c-0.45,0-0.9,0-1.35,0c-0.02-0.13-0.04-0.27-0.05-0.4c0.45-0.1,0.91-0.2,1.36-0.3
			C629.36,480.79,629.37,481.02,629.39,481.25z"/>
		<path class="st0" d="M633.48,481.25c-0.45,0-0.9,0-1.35,0c-0.02-0.13-0.04-0.26-0.06-0.39c0.44-0.11,0.89-0.21,1.33-0.32
			C633.43,480.78,633.46,481.02,633.48,481.25z"/>
		<ellipse class="st0" cx="646.24" cy="494.83" rx="0.19" ry="0.58"/>
	</g>
	<g>
		<g>
			<path class="st0" d="M667.46,524.77c0,8.23,13.44-3.35,26.65,0c49.92,12.65,72.04,100.3,88.31,105.42
				c28.37,8.93,19.16,25.5,19.16,25.5c-0.25-2.15-1.16-3.67-2.85-5.29c-1.34-1.29-2.93-2.3-4.21-3.66c-1.6-1.7-3.29-3.32-5.02-5.04
				c-0.42,0.37-0.84,1.06-1.29,1.08c-2.11,0.12-4.23,0.05-6.3,0.05c-4.35,3.5-5.21,7.83-3.36,12.87h-11.51c0-4.05-0.01-8.1,0-12.15
				c0.01-3.93-2.16-7.23-3.31-10.79c-0.71-2.19-2.86-3.92-4.36-5.86c1.19-3.06-1.85-4.5-2.95-6.42c-1.72-3.02-1.32-6.44-2.73-9.11
				c-1.1-2.09,0.49-4.65-1.98-6.3c-2.04-1.36-2.63-3.63-1.31-6.02c-2.89-1.95-2.41-5.88-5.13-8.18c-2.95-2.5-6.58-2.57-10.29-4.92
				c0.33,6.71-0.9,12.62,2.56,18.17c1.94,3.11,1.8,3.71,1.3,9.24c-0.22,2.4,1.23,5.13-1.22,7.16c-0.14,5.71-5.24,10.25-3.85,16.32
				c-2.51,3.64-0.89,7.75-1.2,11.63c-0.08,1.06,1.14,2.21,1.11,3.3c-0.04,1.33-0.76,2.63-1.19,3.95h-40.94
				c-0.46-1.76,0.7-2.71,1.8-3.73c2.44-2.27,4.08-5.25,4.44-8.34c0.45-3.86,2.28-6.35,4.95-8.53c4.01,1.88,5.06,2.04,6.14-0.03
				c2.45-4.73,5.95-9.1,5.74-14.89c-0.03-0.96,0.59-1.93,0.63-2.91c0.16-4.14,0.93-8.44,0.03-12.35c-0.53-2.31-1.18-4.91-0.48-6.61
				c1.28-3.1,0.88-6.09,1.06-9.15c0.04-0.64-0.26-1.51,0.06-1.88c1.99-2.28,1.45-4.28,0.09-6.73c-0.62-1.12-1.03-3.92,0.96-4.47
				c3.29-0.91,3.83-3.99,5.75-5.94c0.98-1,2.56-1.73,2.11-3.59c-0.66-2.7-1.33-5.39-1.99-8.08c-2.49-0.04-2.32-1.06-1.12-2.72
				c0.36-0.5,0.4-1.56,0.11-2.12c-0.74-1.42-1.73-2.71-2.66-4.02c-2.85-3.97-7.15-6.33-11.23-8.43c-6.48-3.34-12.69-8.08-21.27-6.86
				c-0.52,0.58-1.87,1.42-2.1,2.5c-0.54,2.53-2.12,2.59-4.08,2.5c-0.55-0.02-1.57,0.31-1.6,0.57c-0.31,2.71-2.96,2.14-4.34,3.27
				c-2.72,2.23-6.96,3.59-7.1,7.59c-0.1,3.03-1.47,4.64-3.09,6.12c-3.62,0.97-6.53,0.28-8.49-2.79c-1.39-2.18-2.95-4.33-3.85-6.71
				c-0.58-1.52-1.29-2.31-2.65-3.04c-1.42-0.77-2.57-2.05-3.83-3.11c1.36-2.63-1.92-4.74-0.31-8.02c1.7-3.46,1-8.05,1.61-12.11
				 M605.74,519.1c-0.04,3.63-0.52,7.38-1.61,10.82c-0.86,2.73-1.62,4.92,0.28,7.5c0.42,0.57,1.28,3.11-1.48,3.22
				c-0.34,0.01-0.86,1.23-0.9,1.91c-0.12,2.12-0.22,4.28-0.01,6.39c0.44,4.48-3.19,7.8-3.25,12.1c-3.39,2.59-1.35,6.28-1.86,9.45
				c-0.03,0.21,0.56,0.49,0.83,0.78c2.09,2.18,2.34,2.45,0.73,4c-1.43,1.38-1.86,2.78-1.58,4.49c0.46,2.77-0.64,4.84-2.72,6.29
				c1.21,2.86,1.8,5.79,5.53,6.16c-2.38,1.6-1.22,3.71-1.57,5.47c-0.4,1.96-0.92,3.89-1.43,6.04c1.44,1.45,2.89,2.89,3.9,3.91
				c-0.58,2.6-1.02,4.54-1.41,6.27c2.19,1.39,4.01,2.54,5.9,3.74c1.55-2.29,4.18-3.34,4.76-6.35c-1.39-0.23-2.56-0.42-3.87-0.63
				v-3.06c1.88-0.59,3.73-1.45,5.66-1.7c2.25-0.3,4.57-0.07,7.08-0.07c-0.39,4.92-2.9,8.91-2.65,13.42
				c-2.26,2.08-0.2,2.61,1.24,3.16c0.69,0.27,1.58,0.05,2.49,0.05v3.34c-1.84,0.5-3.58,0.93-5.3,1.44
				c-2.96,0.87-4.01,0.36-4.83-3.19c-0.39-1.72-1.91-2.95-3.67-2.88c-1.23,0.05-2.46,0.01-3.61,0.01c-0.19,0.72-0.37,1.1-0.38,1.49
				c-0.03,1.47-0.01,2.94-0.01,4.27c4.09,4.09,4.09,4.09,7.65,5.11c-0.4,0.44-0.81,0.89-1.23,1.35c2.52,0.67,5.01,1.33,7.36,1.95
				c0.84,3.05,0.45,5.87,1.26,8.74c0.91,3.22,2.15,8.16-3.51,9.8c-0.17,0.05-0.02,1.2-0.02,1.84c-20.47,0-40.94,0-61.41,0
				c0-0.64-0.25-1.44,0.04-1.89c2.7-4.16,4.43-8.89,6.94-13.03c3.11-5.14,5.56-10.46,7.86-15.92c3.03-7.22,5.18-14.67,5.66-22.54
				c0.08-1.3,0.55-2.57,0.83-3.85c-0.91-0.43-1.94-0.92-3.04-1.44c-0.26,1.12-0.41,2.32-0.83,3.43c-0.66,1.77-2.18,0.3-3.09,0.69
				c-1.48,0.63-1.73,2.16-1.6,3.74c0.19,2.37-1.06,3.45-3.37,3.48c-0.99,0.01-1.98,0.1-2.87,0.14c-0.38,2.2,0.61,4.3-1.41,5.62
				c0.84,3.18-1.89,3.89-3.71,4.31c-1.76,0.4-3.13,0.74-4.09,2.62c1.11,1.97,2.31,3.81-0.1,6.34c-1.92,2.03-1.38,5.68-3.52,8.09
				c-0.51,0.58,0.1,2.37,0.5,3.49c0.59,1.66,1.26,3.36,2.27,4.78c0.83,1.16,0.9,1.73,0.34,3.18c-0.94,2.43-2.2,5.55,1.88,6.93
				c0.19,0.07,0.02,1.2,0.02,1.84c0,0-59.49-7.84,23.67-93.56 M764.19,524.77c1.99,0.63,3.66,1.52,5.37,1.61"/>
			<path class="st0" d="M710.28,249.95c-0.27-0.15-0.55-0.3-0.82-0.46c0.14-0.14,0.32-0.42,0.42-0.4c0.3,0.07,0.57,0.26,0.86,0.4
				C710.6,249.64,710.45,249.78,710.28,249.95z"/>
			<path class="st0" d="M686.33,381.38c-0.15,0.15-0.36,0.42-0.4,0.39c-0.28-0.15-0.52-0.37-0.77-0.57
				c0.19-0.19,0.38-0.38,0.57-0.57C685.92,380.88,686.12,381.13,686.33,381.38z"/>
		</g>
	</g>
</g>
<path class="st0" d="M820,95.79v555H501v-555H820 M860,55.79H461v635h399V55.79L860,55.79z"/>
</svg>
