<?xml version="1.0" encoding="utf-8"?>
<!-- Generator: Adobe Illustrator 23.0.1, SVG Export Plug-In . SVG Version: 6.00 Build 0)  -->
<svg version="1.1" id="Layer_1" xmlns="http://www.w3.org/2000/svg" xmlns:xlink="http://www.w3.org/1999/xlink" x="0px" y="0px"
	 viewBox="0 0 1370.95 770.79" style="enable-background:new 0 0 1370.95 770.79;" xml:space="preserve">
<style type="text/css">
	.st0{fill:#FFFFFF;}
</style>
<g>
	<g>
		<g>
			<path class="st0" d="M247.93,700.48c1.55-50.26-11.75-102.03-20.78-151.15c-8.57-46.61-23.34-98.89-17.68-146.59
				c25.14-7.39,50.77-16.04,77.27-16.2c-25.55,68.44-9.25,150.43-3.96,221.17c0.45-0.01,0.68-0.02,1.13-0.03
				c1.74-37.92,1.73-75.89,3.39-113.8c1.19-27.21,1.11-58.31,12.54-83.59c2.52,14.59,4.47,32.29,13.96,44.4
				c4.71,54.45,29.63,108.47,44.78,160.6c0.53-0.04,0.8-0.06,1.33-0.11c-6.23-50.14-18.35-106.42-11.27-156.91
				c14.06-5.95,29.5-15.07,45-16.59c-5.39,38.8-6.38,78.27-6.98,117.39c-0.58,37.56,3.12,77.26-3.11,114.44
				c-10.94,2.62-23.29,2.78-34.36,4.46c-17.23-48.85-30.9-98.88-40.93-149.7c-0.36-0.31-0.53-0.46-0.89-0.77
				c3.72,51.02,12.42,110.98-4.55,160.6C284.57,692.41,266.32,696.71,247.93,700.48z"/>
		</g>
		<g>
			<path class="st0" d="M500.23,553.79c-15.84,2.27-31.55,5.12-47.1,8.92c-0.99,15.89-1.99,31.79-2.83,47.69
				c18.12-7.55,32.2-7.13,51.22-3.69c-2.89,13.81-4.04,19.31-5.35,26.29c-32.02-6.64-51.24,5.66-77.56,22.52
				c-0.94-70.73-7.69-141.31-8.25-212.06c36.19,2.57,71.4,2.93,102.49-17.71c0.49,11.35-0.25,22.69-0.88,34.01
				c-18.46,12-31.87,15.6-53.89,17.75c-0.67,14.44-1.49,28.87-2.34,43.3c18.06-2.56,32.86-5.72,49.62-12.89
				C503.68,523.22,501.96,538.51,500.23,553.79z"/>
		</g>
		<g>
			<path class="st0" d="M538.86,406.55c14.61-8.83,30.77-15.26,44.5-25.53c-1.72,32.65-7.11,65.24-11.5,97.6
				c9.65-4.36,11.02-9.84,19.51-17.64c3.9-35.61,9.8-72.19,9.43-108.11c10.23-8.66,18.1-11.27,31.21-13.25
				c-0.02,108.83-30.27,216.56-32.32,325.35c-9.47,4.37-19.07,9.33-29.86,5.83c0.49-43.16,7.65-86.82,12.48-129.62
				c-8.44,3.79-10.69,6.33-20.11,6.71c-5.24,37.41-11.7,75.02-14.53,112.72c-10.76-6.59-21.24-13.63-32.37-19.59
				C515.12,562.55,539.38,485.16,538.86,406.55z"/>
		</g>
		<g>
			<path class="st0" d="M665.06,516.11c-3.88,35.91-9.39,72.41-9.71,108.6c-11.69,7.74-22.59,16.59-33.66,25.17
				c1.55-104.24,30.02-207.42,30.13-311.7c15.74,0.86,29.38,3.46,44.34,8.44c34.45,13.86,40.5,46.13,37,78.4
				c-2.14,19.72-6.74,52.24-27.53,63.03c14.52,23.88,12.24,55.93,9.37,82.45c-0.41,3.82-0.6,5.68-0.98,9.27
				c-1.36,14.02-3.61,28.46-2.17,42.57c-10.14-4.11-21.08-9.37-32.44-8.18c-3.07-14.45-0.05-30.31,1.22-44.79
				c0.36-3.75,0.56-5.69,0.96-9.67c0.8-8.91,8.97-48.3-9.72-45.48C669.17,514.85,667.81,515.24,665.06,516.11z M672,453.42
				c2.88-0.31,4.32-0.41,7.15-0.46c17.73,0.13,18.35-28.03,19.8-39.53c1.4-11.11,3.97-32.19-10.11-36.95
				c-3.51-0.91-5.28-1.28-8.85-1.86C677.71,400.93,674.84,427.17,672,453.42z"/>
		</g>
		<g>
			<path class="st0" d="M762.8,370.01c11.99,2.97,16.88,17.04,21.84,26.76c-0.71,29.94-2.1,59.86-3.32,89.78
				c7.91,9.21,11.63,14.18,20.28,17.27c0.11-28.28,0.34-56.56,0.15-84.83c11.72,3.22,22.9,7.6,33.19,14.14
				c-3.89,74.43-0.71,149.21-2.07,223.7c-10.23,3.34-20.74,7.26-31.74,6.44c-0.21-33.38,0.07-66.77,0.21-100.16
				c-8.92-2.27-13.3-6.31-22.59-14.21c-1.45,35.29-3.13,70.59-3.98,105.9c-14.16-6.5-27.74-14.24-41.43-21.63
				C743.85,545.53,752.34,457.65,762.8,370.01z"/>
		</g>
		<g>
			<path class="st0" d="M946.71,562.91c-18.81-3.66-35.5-4.66-54.74-3.92c1.59,14.87,3.2,29.74,4.8,44.61
				c24.96-4.65,39.78-2.83,63.74,5.62c-0.79,12.23-1.24,17.81-2.51,27.49c-35.24-12.07-66.38-2.65-100.22,10.35
				c-1.67-66.9-6.69-134.28-4.4-201.2c26.7,19.32,53.87,29.04,86.82,25c0,7.82,0.32,12.89,1.31,24.21
				c-20.62,1.74-36.28-0.16-56.23-6.25c0.91,11.52,1.94,23.01,3.03,34.52c18.02,2.48,35.85,4.32,54.01,5.24
				C943.75,540.02,945.22,551.47,946.71,562.91z"/>
		</g>
		<g>
			<path class="st0" d="M1018.38,452.52c2.88,73.89,16.25,147.12,20.88,220.9c-18.33-8.04-36.29-16.87-54.47-25.23
				c-4.17-61.14-16.84-122.2-17.2-183.55C984.04,459.72,1000.84,452.02,1018.38,452.52z"/>
		</g>
		<g>
			<path class="st0" d="M1167.15,574.94c-1.87-52.97-1.67-106.05-0.82-159.04c-0.53,0.38-0.79,0.57-1.32,0.96
				c-8.21,83.75-10.92,168.2-12.6,252.3c-11.74,3.74-23.47,7.54-35.32,10.95c-20.5-61.7-22.27-131.08-32.95-195.02
				c-0.45,0.24-0.68,0.35-1.12,0.58c4.2,44.68,7.73,89.43,11.24,134.17c1.68,21.58,3.34,43.17,5.21,64.74
				c-8.83,2.25-20.26,3.33-29.08,0.39c-4.82-76.55-17.88-152.46-22.48-229.02c24.97,3.22,34.96-0.68,54.69-16.94
				c18.13,39.82,18.35,93.2,24.08,136.1c0.35-0.24,0.53-0.37,0.88-0.61c1.06-57.54,1.93-118.5,14.6-174.87
				c15.74-15.96,39.92-42.43,65.83-34.42c-0.63,95.26-19.77,196.86,0,291.05c-11.45,0.19-22.6,3.42-33.58,6.25
				C1169.06,633.73,1168.32,604.08,1167.15,574.94z"/>
		</g>
	</g>
</g>
<g>
	<g>
		<g>
			<path class="st0" d="M208.76,372.53c1.36-34.92,8.14-69.61,10.73-104.47c4.19-56.4,0.86-111.53-11.84-166.71
				c12.5,0.58,24.03,6.22,35.34,10.98c18.76,62.5,24.88,129.36,25.4,194.4c0.64-0.06,0.96-0.09,1.6-0.15
				c13.57-59.01,15.76-123.35,3.37-182.78c13.01,2.79,20.85,3.44,34,1.6c15.11,41.32,17.31,86.66,24.66,129.74
				c0.55-0.68,0.83-1.02,1.4-1.68c1.89-48.23,4.89-97.16,0.5-145.35c11.59-7.6,24.52-8.72,37.94-9.62
				c-9.08,63.35-8.21,128.29-12.48,192.07c-21.09,14.28-33.78,27.77-45.44,50.72c-9.54-35.4-7.59-75.02-11.18-111.34
				c-0.25,0.23-0.37,0.33-0.61,0.54c0.29,44.01,2.73,91.63-11.42,134.03C263.45,362.36,235.44,367.44,208.76,372.53z"/>
		</g>
		<g>
			<path class="st0" d="M483.31,196.86c-17.95-2.55-34.63-1.85-52.74-1.1c-0.26,13.13-0.57,26.26-1.02,39.39
				c24.71-2.85,41.2-2.65,65.04,5.36c-1.26,10.77-2.03,15.26-3.98,21.69c-30.46-9.37-65.5-6.25-94.91,6.68
				c-2.96-56.59-2.64-113.43-7.3-169.93c29.94,2.92,60.79,12.67,90.27,4.02c0.4,7.54,0.76,12.73,1.63,24.38
				c-16.83,4.77-31.07,4.14-48.37,2.3c-0.31,11.05-0.52,22.09-0.74,33.14c16.62,0.57,32.86,0.05,49.44-0.62
				C481.53,173.74,482.42,185.3,483.31,196.86z"/>
		</g>
		<g>
			<path class="st0" d="M497.46,94.95c10.75-5.2,21.33-10.74,32.17-15.76c1.84,25.28,4.16,50.53,6.35,75.78
				c10.04,0.91,20.02,2.39,30.04,3.52c-2.38-30.18-5-60.38-6.7-90.61c8.94-3.09,20.77-0.96,29.03,3.18
				c4.26,83.23,8.97,166.44,13.23,249.68c-10.91,5.22-11.47,17.23-22.63,5.71c-1.99-34.85-5.11-69.65-7.87-104.44
				c-10.21-4.69-20.3-9.64-30.48-14.4c2.55,29.15,5.27,58.29,7.44,87.47c-10.41-10.02-18.47-15.47-31.37-21.97
				C510.07,213.74,503.93,154.32,497.46,94.95z"/>
		</g>
		<g>
			<path class="st0" d="M643.28,226.73c-0.09,26.66-1.06,53.78,1.35,80.38c-8.81,1.35-14.22,2.63-25,6.3
				c-7.13-77.14-4.61-155-11.36-232.18c17.15,9.46,33.4,17.41,52.34,22.54c10.4,1.98,27.18,1.22,35.58,9.1
				c9.85,9.23,7.8,27.45,6.88,38.88c-1.48,18.22-4.83,45.87-23.55,56.34c15.7,15.06,13.11,44.11,11.45,63.66
				c-0.24,3.17-0.35,4.72-0.56,7.72c-0.71,12.28-2.12,25.02,0.19,37.23c-10.26-4.27-20.59-8.8-31.71-10.37
				c-1.71-12-0.42-24.5,0.17-36.52c0.17-2.83,0.26-4.28,0.45-7.24c0.45-9.34,5.07-34.1-10.3-35.32
				C646.86,227.05,645.67,226.95,643.28,226.73z M643.6,181.86c2.89,0.68,4.33,1.01,7.21,1.61c15.3,3.54,17.27-18.03,18.27-27.72
				c1.26-12.12-2.05-24.36-15.11-27.94c-4.27-1.24-6.38-1.96-10.55-3.51C643.79,143.47,643.67,162.67,643.6,181.86z"/>
		</g>
		<g>
			<path class="st0" d="M719.57,96.23c10-4.37,14.32-7.06,25.53-10.79c2.08,29.71-0.24,59.96-1.35,89.66
				c8.33-0.69,12.52-1.12,21.66-2.1c1.79-30.71,4.52-61.65,4.21-92.43c12.59-0.31,24.41,0,36.47,4.01
				c-3.15,40.4-7.19,80.73-10.44,121.12c-3.11,38.66-8.82,79.35-5.47,118.16c-6.83,12.29-17.03,20.48-31.19,22.52
				c-3.35-35.45,0.74-72.36,2.62-107.77c-7.98,0.31-12-0.03-20.3-1.16c-1.18,34.32-4.55,70.36-0.02,104.56
				c-10.92-4.76-21.39-10.5-31.92-16.05C703.54,249.66,721.92,172.65,719.57,96.23z"/>
		</g>
		<g>
			<path class="st0" d="M923.16,179.06c-25.12,3.46-49.3,8.38-72.55,18.67c0.44,13.92,0.96,27.8,2.75,41.63
				c24.74-14.45,49.11-20.7,77.85-22.09c-1.98,11.25-2.76,16.48-3.45,25.12c-47.75,3.59-79.81,24.12-115.64,55.19
				c-4.76-32.83-0.17-68.21,2.24-101.11c2.57-35.03,6.08-69.98,8.88-104.99c36.75,15.8,75.01-1.89,112.55-6.21
				c-1.19,9.65-1.9,15.27-3.28,27.17c-27.39,3.21-53.79,11.75-81.45,12.58c-0.2,12.15-0.43,24.31-0.57,36.46
				c24.79-5.82,49.89-11.43,75.08-15.02C924.65,157.33,923.83,168.17,923.16,179.06z"/>
		</g>
		<g>
			<path class="st0" d="M982.26,98.35c-0.65,50.84-4.8,103.09,2.78,153.59c-10.93-4.69-22.5-7.8-34.34-9.02
				c-6.41-51.23,2.26-105.61,8.47-156.47C972.37,89.38,974.03,93.09,982.26,98.35z"/>
		</g>
		<g>
			<path class="st0" d="M1134.83,286.05c1.56-51.19,5.12-102.5,11.14-153.37c-0.75,0.15-1.12,0.23-1.87,0.39
				c-19.67,86.11-32.29,177.16-32.95,265.55c-10.01-4.55-18.91-42.23-24.25-53.19c-18.57-69.18-29.3-140.13-46.68-209.58
				c-0.66-0.08-0.99-0.13-1.65-0.21c5.09,35.63,8.45,71.52,12.59,107.27c2.58,21.06,5.25,42.18,9.78,62.93
				c-16.35-18.34-33.31-31.78-54.67-43.38c-5.69-52.22-4.11-104.74-5.53-157.16c22.84,1.76,43.08-4.12,65.27-9.41
				c17.91,54.27,21.99,114.01,27.56,170.57c0.33,0.36,0.49,0.54,0.82,0.89c1.9-60.89,9.05-122.16,23.92-181.27
				c31.52-3.02,60.19-2.66,87.88,14.18c-4.44,37.18-5.91,74.87-6.61,112.28c-0.71,38.01-2.61,79.05,6.61,116.24
				c-29.27-2.72-53.42,28-70.87,47.07C1133.48,345.95,1134.04,315.97,1134.83,286.05z"/>
		</g>
	</g>
</g>
<path class="st0" d="M372.75,331.38c-3.23-2.14-8.27-2.67-10.43,0.54c-0.6,0.89-0.88,1.95-1.42,2.87c-0.64,1.1-1.6,1.96-2.51,2.85
	c-6.4,6.19-11.05,14.16-13.31,22.77c-1.36,5.17-5.6,8.54-7.97,13.66c-0.69,1.49-1.36,3.16-1.35,4.75c0.01,1.69-1.48,9.69-2.43,10.92
	c-0.7,0.91-1.87,1.29-2.83,1.91c-1.26,0.83-2.2,2.14-2.57,3.61c-0.33,1.31-0.24,2.79-1.02,3.9c-1.25,1.79-3.91,1.63-6.07,1.27
	c-0.55-0.09-1.15-0.22-1.46-0.68c-0.19-0.29-0.22-0.65-0.24-1c-0.16-4.28,2.25-6.22,3.49-9.78c0.97-2.8-0.18-5.81,0.77-8.61
	c1.29-3.82,3.17-7.4,4.36-11.27c0.4-1.31,0.81-2.63,1.21-3.94c0.24-0.79,0.49-1.64,0.28-2.44c-0.4-1.52-2.32-2.88-1.52-4.22
	c0.24-0.4,0.68-0.64,1.06-0.91c3.51-2.53,1-6.25,5.21-8.86c0,0,0.01-0.01,0.01-0.01c1.85-1.14,2.32-2.69,1.85-4.78
	c-0.17-0.74,0-1.87,0.49-2.39c1.68-1.78,2.38-4.1,3.63-6.11c1.11-1.78-0.52-3.45,0.65-4.94c0.67-0.85,3.51-0.53,4.62-1.86
	c2.42-2.9,0.98-6.5,4.87-7.8c1.52-0.51,1.82-2.48,2.71-3.81c0.86-1.28,2.32-2,3.72-2.65c1.43-0.67,2.86-1.34,4.29-2.01
	c0.9-0.42,1.86-0.9,2.31-1.78c3.07-5.94,6.64-3.08,11.47-6.61c3.89-2.85,2.36-10.84,9.22-9.44c2.22,0.45,4.79,0.7,6.85,0
	c3.44-1.16,10.63-2.22,10.73-6.97c0.03-1.47-0.46-2.9-0.77-4.34c-0.11-0.54-0.19-1.16,0.14-1.61c0.76-1.05,2.39-0.02,3.13,1.05
	c0.74,1.06,2.07,2.32,3.1,1.52c0.34-0.27,0.5-0.69,0.65-1.1c0.67-1.87,1.35-3.74,2.02-5.61c2.4,0.85,3.61,4.4,6.15,4.16
	c1.49-0.14,2.65-1.64,4.14-1.55c0.68,0.04,1.37,0.42,2.02,0.19c1.74-0.63,5.63-5,6.85,0.35c0.27,1.2,1.31,1.58,2.58,1.12
	c1.1-0.4,2.24-0.9,3.38-0.95c3.27-0.14,5.76-3.42,9.34-2.26c0.26,0.08,0.66-0.41,1.02-0.51c0.45-0.12,0.98-0.26,1.39-0.13
	c1.8,0.56,3.48,0.01,5.18-0.44c0.75-0.2,1.59-0.56,2.27-0.39c1.84,0.45,3.47,0.13,5.1-0.7c0.42-0.21,1.01-0.46,1.4-0.33
	c3.79,1.24,7.31-1.43,11.16,0.66c0.9,0.49,1.74,1.14,2.74,1.39c0.89,0.22,1.82,0.08,2.73-0.01c4.47-0.47,9.35,0.14,12.73,3.1
	c1.69,1.48,3,3.53,5.09,4.36c2.34,0.93,5.22,0.12,7.35,1.46c0.21,0.13,0.41,0.29,0.5,0.52c0.19,0.49-0.22,0.99-0.65,1.29
	c-2.46,1.73-5.81,0.82-8.72,0.08c-4.01-1.03-23.03-5.11-25.05,0.41c-0.58,1.6,1.04,3.07,1.73,4.63c2,4.55-2.33,12.9-1.75,18.09
	c0.07,0.59,0.19,1.25,0.69,1.59c0.66,0.45,1.6,0.02,2.04-0.65s0.53-1.49,0.73-2.25c0.54-2.02,3.7-6.22,6.14-5.88
	c4.43,0.62,0.54,5.95,1.87,8.5c0.93,1.78,3.65,1.83,5.25,0.61c1.59-1.22,2.33-3.23,2.98-5.13c1.88,2.59,3.15,5.63,3.65,8.8
	c1.57-3.26,3.15-6.52,4.72-9.79c2.94,3.15,4.89,7.2,5.52,11.45c3.57,0.34,4.55-7.19,7.93-6.03c3.02,1.09,3.25,7.86,3.71,10.39
	c2.86-1.26,8.73-4.9,11.75-3.93c3.43,1.11,6.24,8.79,7.1,11.84c0.84,2.98,1.32,6.37,3.73,8.3c3.53,2.83,8.79,0.82,13.2,1.83
	c4.46,1.02,7.59,5.01,11.7,7.03c2.63,1.3,5.58,1.74,8.41,2.5s5.72,1.94,7.52,4.26c1.8,2.32,2.05,6.03-0.12,8
	c-2.75,2.48-7.04,0.89-10.74,0.73c-4.86-0.21-9.36,2.33-13.96,3.91c-4.9,1.68-10.17,2.29-15.33,1.78c-2.41-0.24-5.12-0.95-6.2-3.12
	c-3.21-6.41,7.79-10.86,2.87-18.61c-2.81-4.42-8.06-8.78-12.39-11.62c-2.83-1.86-5.96-3.24-9.12-4.47
	c-17.65-6.89-36.52-8.99-55.34-7.7c-1.93,0.13-3.86,0.55-5.73,1.07c-0.55,0.15-0.99,1.05-1.3,1.69c-0.37,0.76,0.23,1.03,0.79,1.52
	c1.07,0.94,1.88,2.18,2.74,3.35c0.34,0.46,0.44,1.1,0.78,1.56c1.88,2.49,3.17,5.21,3.45,8.35c0.03,0.39-0.01,0.82,0.16,1.15
	c1.46,2.91,1.08,6.01,0.93,9.07c-0.05,1.07-0.33,2.14-0.32,3.21c0.09,4.78-1.65,9.12-3.15,13.52c-1.19,3.49-2.33,7-3.5,10.49
	c-0.12,0.36-0.25,0.83-0.53,0.99c-1.43,0.81-1.6,2.39-2.35,3.62c-1.69,2.79-3.39,5.57-5.26,8.25c-1.21,1.75-2.91,3.17-4.02,4.97
	c-1.05,1.71-2.23,3.04-4,4.03c-1.49,0.83-2.93,1.78-4.27,2.95c-1.83,1.6-3.57,3.8-6.57,3.3c-0.32-0.05-0.73,0.23-1.05,0.44
	c-2.86,1.88-5.93,3.23-9.38,3.48c-3.18,0.23-6.38,0.32-9.56,0.47c-0.09,0-0.19-0.05-0.28-0.07c-8.15-1.62-20.23-2.39-24.94-10.51
	c-1.25-2.16-2.94-3.48-4.85-4.83c-1.01-0.71-1.75-1.62-3.2-1.42c-0.55,0.08-1.18-0.44-2.25-0.88c1.46,0.61-2.65,18.65-3.01,20.33
	c-0.65,3.04-2.15,6.21-1.2,9.34c0.61,2-0.93,3.16-2.9,2.34c-0.77-0.32-1.4-0.99-2.09-1.5c-1.21-0.91-2.58-1.81-4.01-0.85
	c-1.71,1.14-3.31,2.38-5.46,2.58c-0.25,0.02-0.49,0.31-0.72,0.48c-4.28,3.23-8.62,6.39-12.81,9.73c-1.74,1.39-3.36,1.96-5.59,1.33
	c-2.38-0.67-3.22-1.78-2.88-4.32c0.31-2.89,1.91-4.74,3.59-6.98c0.16-0.21,0.33-0.44,0.36-0.7c0.11-0.88-1.11-1.17-1.91-1.55
	c-1.57-0.74-2.05-2.89-1.45-4.52c0.59-1.63,1.96-2.85,3.33-3.93c3.94-3.12,7.71-6.61,11.59-9.85c0.99-0.83,2.06-2.22,1.28-3.24
	c-0.44-0.57-1.24-0.66-1.95-0.7c-3.32-0.21-8.94,1.13-8.06-3.45c0.05-0.28,0.08-0.6,0-0.86c-0.3-0.97,0.18-1.13,1.02-1.25
	c2.08-0.3,7.44-2.23,8.5-4.13c2.24-4.04-4.85-3.08-7.98-3.39c0.54-2,2.75-2.99,4.74-3.57c1.99-0.57,4.23-1.14,5.34-2.89
	c1.11-1.75-0.36-4.83-2.31-4.14c4.81-1.88,9.1-5.07,12.29-9.13c-2.33-0.66-4.24-2.6-4.87-4.94c1.14-0.63,2.28-1.26,3.43-1.89
	c-2.76,0.19-5.58-1.12-7.21-3.35c4.26,0.74,8.81-0.33,12.29-2.89c-1.56-0.52-3.12-1.05-4.68-1.57c3.74-2.46,8.03-4.09,12.47-4.72
	c-1.25-0.56-2.5-1.12-3.75-1.67c2.94-0.6,5.91-1.08,8.89-1.45c-2.58-0.74-5.16-1.48-7.73-2.22c-1.31-0.38-2.97-1.54-2.25-2.7
	c0.28-0.44,0.81-0.63,1.32-0.77c4.15-1.17,8.64-1.1,12.76,0.17c-1.46-4.87-11.42-2.04-12.44-7.02c5.75,0.93,11.41,2.38,16.9,4.33
	C378.38,336.8,375.97,333.52,372.75,331.38z M378.02,319.84c-0.59,0.4-1.35,0.38-1.98,0.04c-0.33-0.18-0.78-0.1-1.16,0.24
	c-1.53,1.34-3.14,2.69-4.26,4.34c-1.21,1.8,0.04,3.69,2.28,3.83c0.97,0.06,1.96-0.14,2.92-0.07c0.64,0.05,1.66,0.22,1.81,0.61
	c0.66,1.71,2.13,1.54,3.43,1.72c2.49,0.33,8.79,3.37,11.46,2.99c2.11-0.3-1.84-1.92-1.36-3.92c0.09-0.37,0.2-0.74,0.33-1.24
	c-3.13-0.77-6.18-1.53-9.37-2.32c0.79-1.37,1.58-0.51,2.27-0.58c1.06-0.1,2.17-0.08,3.14-0.45c1.02-0.39,1.76-0.41,2.72,0.18
	c2.08,1.28,7.3,3.83,9.3,3.01c0.44-0.18,0.55-3.43,0.74-3.93c1.34-3.55-1.56-4.29-3.9-7.41c-1.23-1.65-2.45-3.3-3.74-4.91
	c-1.42-1.78-2.3-1.85-4.26-0.76c-0.9,0.51-2.05,0.61-2.89,1.17c-2.18,1.45-4.3,2.99-6.31,4.66c-0.24,0.2-0.33,0.71-0.32,1.23
	c0.02,0.61-0.28,1.18-0.79,1.53L378.02,319.84z M442.28,316.03c0.1-1.29,3.11-7.79,3.98-8.36c0.72-0.48,1.03-1.35,2.21-1.06
	c0.44,0.11,1.12-0.32,1.54-0.69c3.15-2.74,6.15-5.62,7.47-9.74c0.53-1.65,0.89-3.36,1.25-5.06c0.27-1.3-0.96-2.62-2.25-2.33
	c-2.65,0.59-5.26,1.36-7.9,1.99c-1.17,0.28-2.57,0.1-3.5,0.7c-1.1,0.71-2.15,1.12-3.4,1.42c-2.34,0.57-4.6,1.48-6.92,2.18
	c-0.97,0.29-1.4,0.76-1.47,1.85c-0.09,1.39-0.79,2.2-2.37,1.46c-0.84-0.4-1.34,0.09-1.46,0.88c-0.36,2.33,1.3,4.73,3.53,5.24
	c0.87,0.2,1.7,0.13,1.81-0.88c0.15-1.34,1.09-1.41,2.04-1.68c2.11-0.6,2.32-1.09,1.86-3.35c-0.1-0.51-0.11-1.33,0.19-1.55
	c0.34-0.25,1.1-0.11,1.6,0.08c2.86,1.08,3.59,2.14,2.82,5.16c-0.32,1.23-0.17,2.23-0.05,3.36c0.11,1.05-2.11,8.47-2.13,9.54
	c-0.01,0.52,0.11,1.05,0.21,2.03C441.86,316.57,442.26,316.31,442.28,316.03z M395.96,310.93c-0.24-0.07-0.63-0.01-0.78,0.14
	c-0.16,0.17-0.23,0.6-0.12,0.8c1.52,2.8,7.28,9.74,10.44,10.82c1.6,0.55-1.65-4.43-1.69-6.27c-0.02-0.98,0.25-1.16,1.17-1.52
	c2.52-0.96,8.5,4.03,11.14,3.98c-0.98-2.04-5.41-10.04-6.85-11.67c-0.9-1.02-1.67-1.95-2.25-3.16c-0.18-0.38-1-0.72-1.47-0.66
	c-1.34,0.17-2.68,0.45-3.95,0.89c-1.36,0.47-2.63,1.21-3.96,1.77c-1.35,0.58-1.54,1.12-0.76,2.4c0.59,0.96,1.15,1.93,1.7,2.86
	C397.27,312.25,396.73,311.16,395.96,310.93z M422.97,366.07c0.16-2.53-1.39-4.3-3.95-4.34c-0.86-0.02-1.75,0.14-2.57,0.4
	c-2.87,0.93-4.74,3.04-6.03,5.64c-0.99,2-0.59,4.62,0.62,5.74c1.5,1.38,4.29,1.66,6.31,0.57c0.6-0.32,1.13-0.76,1.7-1.15
	C421.38,371.23,422.78,369.01,422.97,366.07z M465.68,289.16c-0.63-0.89-2.8-1.26-3.72-0.64c-0.77,0.53-1.27,3.71-0.53,3.94
	c1.09,0.35,2.35,0.16,3.16,0.18C465.71,291.78,466.14,289.81,465.68,289.16z M462.43,307.35c-1.47,1.87,0,4.16,0.47,4.2
	c0.44,0.03,2.62-3.8,2.88-4.32c1.06-2.13,0.68-3.31-1.77-5.67C462.96,303.42,461.29,305.37,462.43,307.35z"/>
<g>
	<path class="st0" d="M1026.83,403.11c-0.92-1.16-0.13-2.62-0.44-3.62c-3.59-11.79-12.81-20.29-18.41-30.93
		c-0.3-0.56-1.62-0.59-2.47-0.86c0.65-1.76,0.07-2.9-1.74-3.42c0.62-1.17,0.3-2.14-0.79-2.79c-0.18-0.11-0.98,0.3-1,0.51
		c-0.12,1.26,0.48,2.08,1.79,2.27c-0.64,1.77-0.06,2.91,1.74,3.42c1.84,4.42,0.13,8.47-1.23,12.61c-2,6.1-1.92,6.12-1.2,13.42
		c-6.75,1.21-4.42,8.38-7.78,12.08c-12.63,16.33-29.49,24.11-51.05,24.55c-4.27-1.39-9.87-3.08-15.38-5.03
		c-12.14-4.31-21.27-12.24-27.4-23.54c-3-5.53-6.28-11.01-8.46-16.87c-2.96-7.97-3.22-16.42-1.79-24.82
		c1.05-6.19,5.63-10.38,9.13-15.14c6.03-8.2,15.15-12.24,25.77-17.35c-4.19-1.36-6.66-2.17-9.14-2.98c0.51-1.57,1.02-3.13,1.58-4.86
		c-5.56-0.61-7.22-0.37-14.61,1.46c-1.47,2.14,1.04,3.06,2.13,1.12c1.39-2.46-2.16-1.13-3.07-2.19c-0.08-0.09-1.15,0.65,0.94,1.07
		c6.17,1.16,9.6,2.27,13.03,3.39c-8.14,4.53-17.12,0.82-25.47,3.66c-0.12-1.86-0.17-2.67-0.22-3.48c2.62,0.45,4.42-1.04,6.54-2.85
		c-2.89-1.09-5.18-4.88-8.28-0.56c-2.87-2.33-5.71,0.58-8.56,0.06c0.56-1.72,1.12-3.43,1.68-5.15c1.22,0.5,2.45,0.61,2.6-1.04
		c0.04-0.45-1.14-1.02-1.76-1.53c0.56-1.72,1.12-3.43,1.68-5.15c1.66,0.2,3.13,1.85,5.1,0.63c0.24-3.24-2.86-2.15-4.26-3.21
		c0.28-0.86,0.56-1.72,0.85-2.58c1.17,0.62,2.14,0.3,2.79-0.79c0.11-0.18-0.3-0.98-0.51-1c-1.26-0.12-2.08,0.48-2.27,1.79
		c-1.77-0.64-2.91-0.06-3.42,1.74c-3.98-0.15-5.31,5.14-9.74,5.37c3.27,1.06,6.53,2.13,9.8,3.19c-0.28,0.86-0.56,1.72-0.84,2.58
		c-3.26-0.9-6.46-3.27-9.85-0.45c-0.65-1.16-1.29-2.3-1.9-3.38c-1.33-0.39-2.5-1.02-3.84-0.1c-1.09,0.75-2.36,1.24-3.52,1.83
		c0.07,1.68,2.22,2.84,1.14,4.79c-3.86-1.26-7.71-2.51-12.15-3.96c-10.07,6.54-18.72,15.71-30.22,21.35
		c-4.8-2.9-8.46,1.29-12.63,3.29c0.72,1.66,2.12,3.08,0.51,5.99c-6.1-1.47-8.82,7.46-16.67,5.48c5.09-2.94,8.86-6.72,11.79-11.52
		c6.68-10.95,17.75-17.67,26.71-26.41c11.45-11.17,25.86-17.98,40.11-24.88c1.16-0.56,2.23-1.32,2.85-1.69
		c0.99-3.05,1.81-5.56,3.32-10.21c-0.66-0.7-2.35-2.49-4.43-4.68c8.6-2.07,15.91-4.13,23.88-2.62c1.58-4.8,6.23-5.22,9.78-7.25
		c1.67,2.23,1.72,5.12,4.22,6.39c1.11-1.45,2.12-2.77,3.11-4.07c1.54,1.2,1.24,3.91,3.46,3.83c2.5-0.1,1.27,4.54,3.66,3.19
		c5.31-1.93-1.31-4.67,1.25-6.76c4.8-0.88,4.6,6.92,11.71,4.84c0.42-0.28,2.65-1.76,4.81-3.2c0.97,1.7,1.6,2.81,2.19,3.85
		c1.3-0.56,2.51-1.07,3.66-1.56c5.82,4.84,5.82,4.84,15.39,5.76c1.02,0.59,0.35,2.89,2.54,2.12c1.3-1,1.05-3.4,4.12-3.92
		c0.69,2.16,1.48,4.62,2.27,7.11c4.06-2.26,2.31-7.64,6.43-9.57c0.17,5.1,1.38,9.64-0.01,13.97c8.03,3.78,17.16,3.61,22.71,11.14
		c1.78-1.9,3.19-3.4,4.49-4.79c1.06,0.35,1.91,0.62,2.62,0.85c2.1,1.67-1.32,4.34,1.21,5.77c1.39-0.1,2.8-2.77,4.04,0.14
		c-0.43,1.32-0.85,2.6-1.27,3.89c-1.17-0.62-2.14-0.3-2.79,0.79c-0.11,0.18,0.3,0.98,0.51,1c1.26,0.12,2.08-0.48,2.27-1.79
		c4.43,5.69,11.71,8.36,15.92,13.93c4.51,5.96,9.54,10.67,15.83,13.62c5.66,8.56,10.3,17.67,16.91,25.01
		c6.23,6.92,10.23,14.88,11.73,23.22c1.81,10.08,10.81,16.32,11.19,26.17c-1.21,3.72-2.42,7.43-3.76,11.55
		c-1.7-2.22-4.08-3.76-4.61-4.87c-5.04-10.48-15.36-18.19-16.26-30.89c-0.15-2.07-1.58-4.31-2.99-5.98
		c-8.3-9.77-13.23-22.04-23.12-30.61c-2.73-2.27-5.65,0.25-8.57-0.15c0.69-2.11,1.38-4.23,2.07-6.34
		c-4.39-6.12-12.32-8.44-16.38-15.11c-2.85,0.12-4.74,3.62-8.09,2.77c0.69-2.11,1.37-4.21,2.25-6.92
		c-3.24-2.87-7.69-3.11-11.75-4.64c-1.95,5.96-8.09,4.78-11.95,7.43c-1.17-0.62-2.14-0.3-2.79,0.79c-0.11,0.18,0.3,0.98,0.51,1
		c1.26,0.12,2.08-0.48,2.27-1.79c1.69,0.22,2.33,1.53,1.88,2.78c-1.53,4.28,2.01,3.93,4.18,4.88c0.15,5.11,3.95,4.76,6.89,3.8
		c2.33-0.76,4.03-0.18,5.99,0.39c-1.03,3.92,2.49,3.23,4.31,4.25c-0.28,2.21-2.7,1.89-3.74,3.2c2.44,4.11,8.17,0.9,9.45,2.65
		c2.98,4.09,6.71-1.69,8.91,1.75c-1.08,1.95,1.06,3.11,1.22,6.27c-2.83,1.39-6.24,3.05-9.55,4.67c1.48,1.89,4.39,1.68,6.24,2.45
		c0.89,4.18,2.89,3.83,4.95,4.16c-0.14-3.72-2.97-2.83-4.95-4.16c3.29-4.24,6.18,0.42,9.03,0.27c-1.1,1.95,1.1,3.11,1.13,6.98
		c-1.6,0.17-4.24,0.45-6.76,0.73c1.17,3.12,3.39,2.6,4.86,3.44c-0.65,1.76-0.07,2.9,1.74,3.41c2.9,5.69,5.79,11.38,5.95,17.03
		c-1.47,2.14,1.04,3.06,2.13,1.12c1.39-2.46-2.16-1.13-3.07-2.19c-0.08-0.09-1.15,0.65,0.94,1.07c3.59,0.32,4.45,0.6,5.31,0.88
		c-0.56,1.72-1.12,3.43-1.68,5.15c-1.22-0.5-2.45-0.61-2.6,1.04c-0.04,0.45,1.14,1.02,1.76,1.53c-0.35,2.18-2.58,1.98-3.79,3.04
		c0.36,1.57,2.28,2.72,1.28,4.69C1029.35,403.93,1028.08,403.52,1026.83,403.11z M903.96,308.68c0.18,0.11,0.98-0.3,1-0.51
		c0.12-1.26-0.48-2.08-1.79-2.27c0.61-1.19,0.29-2.16-0.8-2.81c-0.18-0.11-0.98,0.3-1,0.51c-0.12,1.26,0.48,2.08,1.79,2.27
		C902.55,307.06,902.87,308.03,903.96,308.68z M953.91,386.3c1.97,6.4,8.72,8.87,12.08,14.47c7.19-0.34,8.13-5.52,9.22-11.05
		c-1.17-0.67-2.27-1.29-3.62-2.06c-1.43-2.06,0.83-3.93,0.83-6.07c0.11-3.72-5.99-1.9-4.55-6.36c-3.23,0.93-2.19,3.43-3.65,4.62
		C958.39,377.58,955.35,380.45,953.91,386.3z M968.89,315.2c2.12,1.62,3.72,2.7,5.4-0.15c2.36-4.01,7.34-4.18,11.25-7.46
		c-4.44-2.18-8.63-3.77-12.82-4.15C971.26,307.92,970.06,311.6,968.89,315.2z M957.55,305.08c1.12,2.26,3.01,4.35,0.86,7.53
		c4.25-2.38,4.11-6.04,5.38-10.7C960.66,303.49,959.1,304.28,957.55,305.08z M966.28,323.54c-1.69-4.2-2.13-7.67-0.34-11.15
		c-4.02,2.04-3.84,5.72-4.73,9.2C962.62,322.13,963.74,322.56,966.28,323.54z M951.67,304.2c1.64-3.09,3.44-5.91-4.37-5.21
		C948.89,300.88,950.15,302.39,951.67,304.2z M1008.82,348.13c-0.17-3.46-2.05-3.24-4.83-2.37
		C1005.38,348.39,1006.97,348.32,1008.82,348.13z M945.49,298.3c-0.45-1.47-1.3-1.75-2.53-0.82
		C943.4,298.95,944.26,299.23,945.49,298.3z M951.7,323.11c0.45,1.47,1.3,1.75,2.53,0.82C953.79,322.46,952.93,322.18,951.7,323.11z
		 M936.26,322.33c1.47-0.45,1.75-1.3,0.82-2.53C935.61,320.25,935.33,321.1,936.26,322.33z M867.57,301.42
		c-0.45-1.47-1.3-1.75-2.53-0.82C865.48,302.07,866.34,302.35,867.57,301.42z M921.71,323.29c1.47-0.45,1.75-1.3,0.82-2.53
		C921.06,321.21,920.78,322.06,921.71,323.29z M856.53,309.22c0.45,1.47,1.3,1.75,2.53,0.82
		C858.62,308.57,857.76,308.29,856.53,309.22z M1022.33,381.68c1.47-0.45,1.75-1.3,0.82-2.53
		C1021.68,379.6,1021.4,380.45,1022.33,381.68z"/>
	<path class="st0" d="M843.63,360.26c1.43,1.15,3.96,0.6,3.26,3.44c-5.36-0.54-9.59,0.78-10.37,7.46
		c5.39,5.08-0.52,13.33,5.63,18.75c-2.71,0.8-4.26,1.6-4.56,3.79c0.11,3.61,3.64,5.48,5.27,8.66c-10.08-4.31-20.7-4.21-31.36-6.34
		c1.49-4.57,2.71-8.31,4.29-13.17c-1.34-1.55-3.02-3.48-4.95-5.71c4.9-0.96,3.9-2.87,2.42-5.07c14.94-7.34,24.92-21.74,40.69-29.3
		C852.65,350.74,842.14,352.01,843.63,360.26z M828.76,381.33c-2.44,1.13-3,2.85-1.69,5.2
		C829.51,385.39,830.07,383.68,828.76,381.33z"/>
	<path class="st0" d="M877.91,317.67c1.14,1.18,0.91,3.46,3.09,3.79c-1.95,2.07-3.91,4.13-6.02,6.37c-2.72-0.88-5.54-1.8-8.35-2.72
		c-0.4-2.2-2.88-3.59-1.91-6.1C868.93,316.67,873.81,320.8,877.91,317.67z M869.86,321.37c0.17,3.46,2.05,3.24,4.83,2.37
		C873.3,321.11,871.71,321.18,869.86,321.37z"/>
	<path class="st0" d="M1041.76,405.12c-0.52,3.91,3.08,6.18,3.51,9.74c1.06-0.41,1.82-0.71,4.16-1.62c1.4-0.41,0.22,3.93,2.77,3.93
		c1.69,0,3.38,1,5.08,1.55c1.76-4.18-7.27-4.15-3.15-9.57C1049.86,407.76,1045.81,406.44,1041.76,405.12z"/>
	<path class="st0" d="M864.84,336.13c-4.87,0.92-9.63,2-11.08,7.79C858.63,343,863.38,341.91,864.84,336.13z"/>
	<path class="st0" d="M855.22,330.5c-2.3-0.75-4.66-1.52-9.33-3.04c2.93,3.52,2.55,6.64,6.09,7.33
		C855.1,334.73,854.45,331.88,855.22,330.5z"/>
	<path class="st0" d="M865.49,336.38c4.16,1.57,7.4,0.21,9.06-3.81C871.56,333.83,868.31,335.2,865.49,336.38z"/>
	<path class="st0" d="M1024.39,370.98c2.36,0.77,4.71,1.53,10.16,3.31c-4.44-4.5-6.67-6.75-8.61-8.72c-1.93,0.1-3.08,0.41-3.29,2
		C1024.45,368.08,1025.03,369.22,1024.39,370.98z"/>
	<path class="st0" d="M863.94,330.14c-1.44-1.42-2.87-2.83-4.31-4.25c-0.51,1.8-1.65,2.38-3.41,1.74c-0.28,0.86-0.56,1.72-0.84,2.58
		C858.23,330.05,861.12,334.71,863.94,330.14z"/>
	<path class="st0" d="M1041.76,405.12c0.31-4.39-1.92-6.78-6.05-7.67C1035.39,401.85,1037.63,404.23,1041.76,405.12z"/>
	<path class="st0" d="M1030.62,404.34c-1.71,3.86-1.1,7.07,2.64,9.4C1034.97,409.88,1034.36,406.68,1030.62,404.34z"/>
	<path class="st0" d="M1033.78,413.19c-1.26,3.88-2.31,7.1-3.22,9.89c0.52,1.44,1.72,1.63,1.96,0.63
		C1033.27,420.46,1036.97,417.32,1033.78,413.19z"/>
	<path class="st0" d="M1016.48,342.77c2.08,0.25,4.52,2.88,5.99-0.9C1020.39,341.63,1017.96,338.99,1016.48,342.77z"/>
	<path class="st0" d="M1028.89,356.51c-1.26-2.18-3.77-3.1-4.87-1.16c-1.39,2.46,2.16,1.13,3.07,2.19
		C1027.18,357.63,1028.24,356.89,1028.89,356.51z"/>
	<path class="st0" d="M857.05,325.05c-1.66-0.2-3.13-1.85-5.1-0.63c-0.24,3.24,2.86,2.15,4.26,3.21
		C856.49,326.77,856.77,325.91,857.05,325.05z"/>
	<path class="st0" d="M1037.29,389.07c1.36,4.51,3.36,4.16,5.42,4.48C1042.56,389.84,1039.73,390.73,1037.29,389.07z"/>
	<path class="st0" d="M1039.32,376.99c-1.26-2.18-3.77-3.1-4.86-1.16c-1.39,2.46,2.16,1.13,3.07,2.19
		C1037.6,378.12,1038.67,377.37,1039.32,376.99z"/>
	<path class="st0" d="M889.57,321.4c-0.65,1.76-0.07,2.9,1.74,3.41C891.95,323.05,891.38,321.91,889.57,321.4z"/>
	<path class="st0" d="M884.5,328.28c1.16,0.62,2.13,0.31,2.78-0.78c0.11-0.18-0.3-0.98-0.51-1
		C885.5,326.38,884.68,326.97,884.5,328.28z"/>
	<path class="st0" d="M1033.84,376.92c-1.16-0.62-2.13-0.31-2.78,0.78c-0.11,0.18,0.3,0.98,0.51,1
		C1032.83,378.82,1033.65,378.23,1033.84,376.92z"/>
	<path class="st0" d="M884.47,328.29c-1.16-0.62-2.13-0.31-2.78,0.78c-0.11,0.18,0.3,0.98,0.51,1
		C883.46,330.2,884.28,329.6,884.47,328.29z"/>
	<path class="st0" d="M859.63,325.89c0.5-1.22,0.61-2.45-1.04-2.6c-0.45-0.04-1.02,1.14-1.53,1.76
		C857.91,325.33,858.77,325.61,859.63,325.89z"/>
	<path class="st0" d="M863.95,330.14c1.16,0.62,2.13,0.31,2.78-0.78c0.11-0.18-0.3-0.98-0.51-1
		C864.96,328.23,864.14,328.83,863.95,330.14z"/>
	<path class="st0" d="M1035.65,388.89c0.86,0.28,1.72,0.56,2.58,0.84c0.5-1.22,0.61-2.45-1.04-2.6
		C1036.73,387.09,1036.16,388.27,1035.65,388.89z"/>
	<path class="st0" d="M1033.13,396.62c0.86,0.28,1.72,0.56,2.58,0.84c0.65-1.76,0.07-2.9-1.74-3.41
		C1033.69,394.9,1033.41,395.76,1033.13,396.62z"/>
	<path class="st0" d="M1057.28,418.73c-0.62,1.16-0.31,2.13,0.78,2.78c0.18,0.11,0.98-0.3,1-0.51
		C1059.18,419.73,1058.59,418.91,1057.28,418.73z"/>
	<path class="st0" d="M1006.12,330.86c-1.42,1.44-2.83,2.87-4.25,4.31c1.66,0.2,3.13,1.85,5.09,0.64
		C1008.11,333.97,1009.32,332.1,1006.12,330.86z"/>
	<path class="st0" d="M1000.97,329.18c1.72,0.56,3.43,1.12,5.15,1.68c0.97-2.36-0.58-3.2-2.38-3.57
		C1002.41,327.02,1001.19,327.52,1000.97,329.18z"/>
	<path class="st0" d="M990.14,326.8c-1.26-2.18-3.77-3.1-4.87-1.16c-1.39,2.46,2.16,1.13,3.07,2.19
		C988.43,327.93,989.49,327.18,990.14,326.8z"/>
	<path class="st0" d="M996.66,324.93c1.76,0.65,2.9,0.07,3.41-1.74C998.31,322.54,997.17,323.12,996.66,324.93z"/>
	<path class="st0" d="M996.64,324.94c-1.16-0.62-2.13-0.31-2.78,0.78c-0.11,0.18,0.3,0.98,0.51,1
		C995.64,326.84,996.46,326.24,996.64,324.94z"/>
	<path class="st0" d="M997.56,330.92c1.76,0.65,2.9,0.07,3.41-1.74C999.21,328.53,998.07,329.11,997.56,330.92z"/>
	<path class="st0" d="M886.04,306.01c-0.86-0.28-1.72-0.56-2.58-0.84c-0.65,1.76-0.07,2.9,1.74,3.41
		C885.48,307.72,885.76,306.86,886.04,306.01z"/>
</g>
</svg>
